<svg width="180" height="22" viewBox="0 0 180 22" fill="none" xmlns="http://www.w3.org/2000/svg">
<g clip-path="url(#clip0)">
<path d="M106.204 1.59521C101.277 1.59521 97.2752 4.78165 97.2752 10.3763C97.2752 15.9709 101.277 19.1573 106.204 19.1573H120.508C125.435 19.1573 129.721 15.9709 129.721 10.3763C129.721 4.78165 125.435 1.59521 120.508 1.59521H106.204Z" fill="#FFBE00"/>
<path d="M11.4373 12.1232C11.049 12.1232 10.7206 12.2407 10.4667 12.4609C10.2278 12.6665 9.974 12.9309 9.67544 13.2245C9.3768 13.5476 8.98856 13.8265 8.5108 14.0468C8.03296 14.2671 7.46558 14.3845 6.80862 14.3845C5.73357 14.3845 4.82277 13.9881 4.121 13.2245C3.4043 12.4462 3.04596 11.4918 3.04596 10.3611C3.04596 9.24515 3.4043 8.29068 4.121 7.51243C4.82277 6.73418 5.73357 6.35239 6.80862 6.35239C7.34614 6.35239 7.83886 6.4405 8.25696 6.63139C8.67504 6.8076 9.0184 7.01318 9.27224 7.21875C9.61568 7.51243 9.91432 7.79143 10.1382 8.05574C10.3921 8.33474 10.7505 8.48158 11.2133 8.48158C11.5567 8.48158 11.8554 8.36411 12.0644 8.12916C12.2883 7.89422 12.3929 7.60054 12.3929 7.24812C12.3929 6.93975 12.3033 6.63139 12.1241 6.32303C11.945 6.02935 11.7061 5.72098 11.4074 5.44199C10.8998 4.94273 10.2428 4.50221 9.45144 4.12042C8.66008 3.73864 7.76421 3.54774 6.74889 3.54774C4.85263 3.54774 3.24006 4.22321 1.95598 5.54477C0.656971 6.86634 0 8.48158 0 10.3465C0 12.226 0.656972 13.8413 1.94106 15.1628C3.22514 16.4844 4.85263 17.1452 6.74889 17.1452C7.73435 17.1452 8.63024 16.9689 9.4216 16.6459C10.213 16.3081 10.855 15.897 11.3477 15.4125C11.721 15.0747 12.0046 14.7076 12.2286 14.3552C12.4526 14.0028 12.5571 13.6357 12.5571 13.2833C12.5571 12.9602 12.4526 12.6812 12.2286 12.4609C12.0196 12.2407 11.7508 12.1232 11.4373 12.1232Z" fill="#8600A7"/>
<path d="M21.5 3.54774C19.6038 3.54774 18.0061 4.22321 16.722 5.54477C15.438 6.86634 14.7959 8.48158 14.7959 10.3465C14.7959 12.226 15.438 13.8413 16.722 15.1628C18.0061 16.4844 19.6038 17.1452 21.5 17.1452C23.4112 17.1452 25.0238 16.4697 26.293 15.1628C27.577 13.8413 28.219 12.226 28.219 10.3465C28.219 8.49627 27.577 6.88102 26.293 5.54477C25.0238 4.22321 23.3962 3.54774 21.5 3.54774ZM18.8572 7.43901C19.544 6.64607 20.425 6.24961 21.4851 6.24961C22.5601 6.24961 23.456 6.64607 24.1428 7.43901C24.8297 8.23195 25.1731 9.21578 25.1731 10.3465C25.1731 11.4771 24.8297 12.4757 24.1428 13.2685C23.456 14.0615 22.5601 14.4726 21.4851 14.4726C20.425 14.4726 19.5291 14.0762 18.8572 13.2685C18.1704 12.4757 17.8269 11.4918 17.8269 10.3465C17.8269 9.2011 18.1704 8.23195 18.8572 7.43901Z" fill="#8600A7"/>
<path d="M47.0333 3.54774C46.033 3.54774 45.137 3.79737 44.3756 4.29663C43.6589 4.76652 43.1214 5.30983 42.763 5.94124C42.345 5.20704 41.7775 4.63436 41.0459 4.20853C40.2844 3.768 39.3736 3.54774 38.3284 3.54774C37.4475 3.54774 36.6562 3.75332 35.9843 4.17916C35.387 4.54626 34.9241 4.98678 34.6106 5.48603L34.5658 4.98678C34.521 4.53158 34.3568 4.17916 34.088 3.92953C33.8192 3.6799 33.4609 3.54774 33.0577 3.54774C32.6397 3.54774 32.2963 3.69458 32.0424 3.9589C31.7737 4.23789 31.6393 4.59031 31.6393 5.00146V15.7208C31.6393 16.1173 31.7886 16.455 32.1021 16.734C32.4008 17.013 32.774 17.1452 33.2071 17.1452C33.6401 17.1452 33.9984 17.013 34.312 16.734C34.6106 16.455 34.7748 16.1173 34.7748 15.7208V9.84719C34.7748 8.74589 35.0585 7.85016 35.611 7.16002C36.1634 6.48455 36.91 6.13214 37.8357 6.13214C38.6121 6.13214 39.2393 6.41113 39.6722 6.98381C40.1202 7.55648 40.3442 8.34943 40.3442 9.34794V15.7355C40.3442 16.132 40.4934 16.4697 40.807 16.7487C41.1057 17.0277 41.479 17.1598 41.9119 17.1598C42.345 17.1598 42.7033 17.0277 43.0168 16.7487C43.3154 16.4697 43.4797 16.132 43.4797 15.7355V9.84719C43.4797 8.74589 43.7634 7.85016 44.3158 7.16002C44.8683 6.48455 45.6149 6.13214 46.5406 6.13214C47.317 6.13214 47.9442 6.41113 48.3771 6.98381C48.825 7.55648 49.049 8.34943 49.049 9.34794V15.7355C49.049 16.132 49.1983 16.4697 49.5119 16.7487C49.8105 17.0277 50.1838 17.1598 50.6168 17.1598C51.0498 17.1598 51.4082 17.0277 51.7217 16.7487C52.0203 16.4697 52.1846 16.132 52.1846 15.7355V8.90742C52.1846 7.27749 51.7217 5.97061 50.796 5.00146C49.8254 4.047 48.5712 3.54774 47.0333 3.54774Z" fill="#8600A7"/>
<path d="M63.0109 3.54774C62.1449 3.54774 61.3386 3.72395 60.607 4.06169C59.9201 4.37005 59.3229 4.82526 58.8451 5.38325L58.8152 5.17767C58.7854 4.79589 58.651 4.47284 58.442 4.25258C58.218 4.01763 57.9044 3.90016 57.4864 3.90016C57.0683 3.90016 56.7398 4.01763 56.5009 4.26726C56.262 4.51689 56.1426 4.82526 56.1426 5.20704V20.4197C56.1426 20.8161 56.2919 21.1392 56.5756 21.4035C56.8593 21.6678 57.2325 21.8 57.6506 21.8C58.0836 21.8 58.442 21.6678 58.7107 21.4035C58.9944 21.1392 59.1288 20.8161 59.1288 20.4197V15.5446C59.6066 16.0438 60.174 16.4403 60.8011 16.7046C61.4879 16.9983 62.2196 17.1598 62.9661 17.1598C64.7429 17.1598 66.2659 16.4844 67.4754 15.1628C68.6847 13.8413 69.297 12.2113 69.297 10.3318C69.297 8.42284 68.6847 6.8076 67.4903 5.5154C66.3107 4.20853 64.8026 3.54774 63.0109 3.54774ZM66.2659 10.3318C66.2659 11.4918 65.9225 12.4757 65.2357 13.2539C64.5488 14.0321 63.6679 14.4286 62.6078 14.4286C61.5178 14.4286 60.5921 14.0321 59.8754 13.2539C59.1587 12.4757 58.7854 11.4918 58.7854 10.3611C58.7854 9.18641 59.1437 8.20259 59.8604 7.43901C60.5771 6.67544 61.5029 6.27898 62.5928 6.27898C63.6529 6.27898 64.5488 6.66076 65.2207 7.42433C65.9075 8.20259 66.2659 9.17173 66.2659 10.3318Z" fill="#8600A7"/>
<path d="M79.2555 3.54774C78.3894 3.54774 77.613 3.79737 76.956 4.26726C76.3737 4.6931 75.9258 5.17767 75.6272 5.72098L75.5376 4.88399C75.4928 4.44347 75.3435 4.12042 75.0897 3.88548C74.8358 3.65053 74.5223 3.54774 74.1639 3.54774C73.716 3.54774 73.3576 3.69458 73.1038 3.9589C72.85 4.23789 72.7156 4.60499 72.7156 5.0602V15.7208C72.7156 16.1173 72.8649 16.455 73.1785 16.734C73.4771 17.013 73.8504 17.1452 74.2834 17.1452C74.7164 17.1452 75.0747 17.013 75.3883 16.734C75.6869 16.455 75.8511 16.1173 75.8511 15.7208V9.84719C75.8511 8.71652 76.1199 7.87953 76.6724 7.35091C77.2099 6.82228 77.8668 6.54329 78.6283 6.54329C78.7777 6.54329 78.9419 6.55797 79.0912 6.57266C79.2555 6.58734 79.4048 6.60203 79.569 6.60203C80.0169 6.60203 80.3753 6.45519 80.659 6.16151C80.9426 5.86782 81.077 5.50072 81.077 5.0602C81.077 4.61968 80.9278 4.26726 80.6142 3.98827C80.3156 3.69458 79.8527 3.54774 79.2555 3.54774Z" fill="#8600A7"/>
<path d="M93.7522 3.54774C93.349 3.54774 93.0206 3.66522 92.7518 3.91485C92.483 4.16447 92.3338 4.48752 92.3038 4.88399L92.274 5.23641C91.7962 4.72247 91.2438 4.31131 90.5868 4.01763C89.8999 3.70927 89.1385 3.54774 88.3471 3.54774C86.6002 3.54774 85.107 4.22321 83.9125 5.54477C82.7181 6.86634 82.1208 8.48158 82.1208 10.3465C82.1208 12.226 82.718 13.8413 83.8976 15.1481C85.0772 16.4697 86.5703 17.1452 88.3172 17.1452C89.1086 17.1452 89.8701 16.9837 90.5569 16.69C91.199 16.4109 91.7663 15.9998 92.259 15.4712L92.289 15.8677C92.3188 16.2788 92.4681 16.5872 92.7369 16.8074C93.0056 17.0277 93.349 17.1452 93.7522 17.1452C94.1702 17.1452 94.4987 17.013 94.7227 16.7633C94.9616 16.5137 95.0662 16.1907 95.0662 15.7942V4.92804C95.0662 4.51689 94.9467 4.19384 94.6929 3.92953C94.4838 3.6799 94.1554 3.54774 93.7522 3.54774ZM92.498 10.3024C92.498 11.4624 92.1396 12.4609 91.4229 13.2685C90.7211 14.0762 89.8104 14.4726 88.7502 14.4726C87.7051 14.4726 86.839 14.0762 86.1671 13.2685C85.4952 12.4757 85.1518 11.4918 85.1518 10.3465C85.1518 9.2011 85.4952 8.21727 86.1671 7.43901C86.839 6.64607 87.7051 6.24961 88.7502 6.24961C89.8104 6.24961 90.7062 6.64607 91.4229 7.43901C92.1396 8.23195 92.498 9.2011 92.498 10.3024Z" fill="#8600A7"/>
<path d="M126.438 12.1232C126.05 12.1232 125.721 12.2407 125.468 12.4609C125.229 12.6665 124.975 12.9309 124.676 13.2245C124.378 13.5476 123.989 13.8265 123.512 14.0468C123.034 14.2671 122.466 14.3845 121.809 14.3845C120.734 14.3845 119.824 13.9881 119.122 13.2245C118.405 12.4462 118.047 11.4918 118.047 10.3611C118.047 9.24515 118.405 8.29068 119.122 7.51243C119.824 6.73418 120.734 6.35239 121.809 6.35239C122.347 6.35239 122.84 6.4405 123.258 6.63139C123.676 6.8076 124.019 7.01318 124.273 7.21875C124.616 7.51243 124.915 7.79143 125.139 8.05574C125.393 8.33474 125.751 8.48158 126.214 8.48158C126.558 8.48158 126.856 8.36411 127.065 8.12916C127.289 7.89422 127.394 7.60054 127.394 7.24812C127.394 6.93975 127.304 6.63139 127.125 6.32303C126.946 6.02935 126.707 5.72098 126.408 5.44199C125.901 4.94273 125.244 4.50221 124.452 4.12042C123.661 3.73864 122.765 3.54774 121.75 3.54774C119.853 3.54774 118.241 4.22321 116.957 5.54477C115.658 6.86634 115.001 8.48158 115.001 10.3465C115.001 12.226 115.658 13.8413 116.942 15.1628C118.226 16.4844 119.853 17.1452 121.75 17.1452C122.735 17.1452 123.631 16.9689 124.422 16.6459C125.214 16.3081 125.856 15.897 126.348 15.4125C126.722 15.0747 127.005 14.7076 127.229 14.3552C127.453 14.0028 127.558 13.6357 127.558 13.2833C127.558 12.9602 127.453 12.6812 127.229 12.4609C127.035 12.2407 126.752 12.1232 126.438 12.1232Z" fill="#8600A7"/>
<path d="M142.667 10.8751C142.981 10.5667 143.145 10.0968 143.145 9.50946C143.145 7.85016 142.593 6.42582 141.503 5.28046C140.413 4.13511 138.964 3.54774 137.203 3.54774C135.411 3.54774 133.873 4.20853 132.634 5.5154C131.394 6.82228 130.767 8.4669 130.767 10.3905C130.767 12.3729 131.409 14.0174 132.678 15.2656C133.948 16.5137 135.635 17.1452 137.68 17.1452C138.218 17.1452 138.875 17.0717 139.636 16.9396C140.398 16.8074 141.07 16.6018 141.652 16.3229C142.07 16.1173 142.399 15.897 142.638 15.6473C142.876 15.3977 142.996 15.0747 142.996 14.6782C142.996 14.3699 142.891 14.1056 142.667 13.9C142.443 13.6944 142.175 13.5916 141.861 13.5916C141.592 13.5916 141.353 13.6504 141.129 13.7678C140.92 13.8706 140.637 13.9881 140.293 14.0909C140.025 14.1789 139.696 14.2671 139.308 14.3258C138.92 14.3993 138.442 14.4286 137.904 14.4286C136.74 14.4286 135.799 14.1496 135.112 13.6063C134.44 13.0777 134.007 12.3141 133.843 11.3597H141.309C141.891 11.3597 142.354 11.1981 142.667 10.8751ZM137.143 6.16151C138.039 6.16151 138.77 6.41113 139.338 6.89571C139.875 7.36559 140.189 8.07043 140.263 8.95147H133.918C134.112 8.08511 134.485 7.39496 135.038 6.91039C135.605 6.41113 136.307 6.16151 137.143 6.16151Z" fill="#8600A7"/>
<path d="M152.865 3.54774C151.999 3.54774 151.223 3.79737 150.566 4.26726C149.984 4.6931 149.536 5.17767 149.237 5.72098L149.148 4.88399C149.103 4.44347 148.953 4.12042 148.7 3.88548C148.446 3.65053 148.132 3.54774 147.774 3.54774C147.326 3.54774 146.968 3.69458 146.714 3.9589C146.46 4.23789 146.326 4.60499 146.326 5.0602V15.7208C146.326 16.1173 146.475 16.455 146.788 16.734C147.087 17.013 147.46 17.1452 147.893 17.1452C148.326 17.1452 148.685 17.013 148.998 16.734C149.297 16.455 149.461 16.1173 149.461 15.7208V9.84719C149.461 8.71652 149.73 7.87953 150.282 7.35091C150.82 6.82228 151.477 6.54329 152.238 6.54329C152.388 6.54329 152.552 6.55797 152.701 6.57266C152.865 6.58734 153.015 6.60203 153.179 6.60203C153.627 6.60203 153.985 6.45519 154.269 6.16151C154.553 5.86782 154.687 5.50072 154.687 5.0602C154.687 4.61968 154.538 4.26726 154.224 3.98827C153.926 3.69458 153.463 3.54774 152.865 3.54774Z" fill="#8600A7"/>
<path d="M164.35 14.0177C164.216 14.0177 164.096 14.0323 163.977 14.047C163.872 14.0764 163.768 14.0911 163.693 14.1058C163.529 14.1498 163.38 14.1938 163.23 14.2379C163.081 14.282 162.902 14.2966 162.693 14.2966C162.17 14.2966 161.752 14.1498 161.483 13.8562C161.2 13.5625 161.065 13.1366 161.065 12.5786V6.60223H163.335C163.768 6.60223 164.126 6.47008 164.395 6.22045C164.679 5.97082 164.813 5.61841 164.813 5.20725C164.813 4.78141 164.664 4.45836 164.38 4.2381C164.096 4.01785 163.738 3.91505 163.32 3.91505H161.051V1.6684C161.051 1.24257 160.901 0.890147 160.632 0.61115C160.349 0.332153 159.975 0.199997 159.513 0.199997C159.05 0.199997 158.676 0.346837 158.393 0.61115C158.109 0.875463 157.975 1.24257 157.975 1.6684V3.90037H157.616C157.183 3.90037 156.84 4.01785 156.556 4.25279C156.273 4.48773 156.123 4.81078 156.123 5.22193C156.123 5.63309 156.273 5.97082 156.541 6.22045C156.825 6.47008 157.183 6.60223 157.601 6.60223H157.96V12.7108C157.96 14.0911 158.363 15.1924 159.139 15.9706C159.916 16.7636 161.021 17.1601 162.394 17.1601C162.827 17.1601 163.23 17.116 163.589 17.0426C163.947 16.9691 164.261 16.8664 164.514 16.7342C164.873 16.5727 165.142 16.3524 165.336 16.0881C165.53 15.8238 165.619 15.5302 165.619 15.2218C165.619 14.884 165.5 14.5903 165.261 14.3554C165.052 14.1351 164.738 14.0177 164.35 14.0177Z" fill="#8600A7"/>
<path d="M179.652 3.92953C179.399 3.6799 179.07 3.54774 178.682 3.54774C178.279 3.54774 177.95 3.66522 177.681 3.91485C177.413 4.16447 177.263 4.48752 177.233 4.88399L177.204 5.23641C176.726 4.72247 176.173 4.31131 175.516 4.01763C174.83 3.70927 174.068 3.54774 173.277 3.54774C171.53 3.54774 170.037 4.22321 168.842 5.54477C167.648 6.86634 167.05 8.48158 167.05 10.3465C167.05 12.226 167.648 13.8413 168.827 15.1481C170.007 16.4697 171.5 17.1452 173.247 17.1452C174.038 17.1452 174.8 16.9837 175.487 16.69C176.129 16.4109 176.696 15.9998 177.189 15.4712L177.219 15.8677C177.248 16.2788 177.398 16.5872 177.667 16.8074C177.935 17.0277 178.279 17.1452 178.682 17.1452C179.1 17.1452 179.428 17.013 179.652 16.7633C179.891 16.5137 179.996 16.1907 179.996 15.7942V4.92804C180.026 4.51689 179.906 4.19384 179.652 3.92953ZM177.428 10.3024C177.428 11.4624 177.069 12.4609 176.353 13.2685C175.651 14.0762 174.74 14.4726 173.68 14.4726C172.635 14.4726 171.769 14.0762 171.097 13.2685C170.425 12.4757 170.081 11.4918 170.081 10.3465C170.081 9.2011 170.425 8.21727 171.097 7.43901C171.769 6.64607 172.635 6.24961 173.68 6.24961C174.74 6.24961 175.636 6.64607 176.353 7.43901C177.069 8.23195 177.428 9.2011 177.428 10.3024Z" fill="#8600A7"/>
</g>
<defs>
<clipPath id="clip0">
<rect width="180" height="21.6" fill="white" transform="translate(0 0.199997)"/>
</clipPath>
</defs>
</svg>
