<svg width="88" height="36" viewBox="0 0 88 36" fill="none" xmlns="http://www.w3.org/2000/svg">
<g clip-path="url(#clip0)">
<path d="M23.8745 15.6766C21.3064 15.6766 20.0059 13.9806 20.0059 11.6349C20.0059 9.26068 21.3053 7.536 23.8745 7.536C26.4131 7.536 27.7432 9.26068 27.7432 11.6349C27.7432 13.9806 26.4131 15.6766 23.8745 15.6766ZM23.8745 3.29689C22.7131 3.29508 21.5631 3.51099 20.4924 3.93187C19.4217 4.35276 18.452 4.97009 17.6407 5.74737C16.8294 6.52465 16.1929 7.44613 15.7688 8.45736C15.3447 9.46859 15.1416 10.5491 15.1715 11.6349C15.115 12.7244 15.3003 13.8131 15.7156 14.8323C16.131 15.8516 16.7674 16.7794 17.5849 17.5573C18.4025 18.3353 19.3833 18.9465 20.4658 19.3525C21.5482 19.7586 22.7088 19.9507 23.8745 19.9167C25.0315 19.9205 26.1776 19.7078 27.2454 19.2912C28.3131 18.8745 29.281 18.2624 30.092 17.4907C30.9031 16.719 31.5409 15.8034 31.9679 14.7978C32.395 13.7921 32.6026 12.7168 32.5787 11.6349C32.6361 10.5425 32.4519 9.45074 32.0376 8.42792C31.6233 7.40511 30.9878 6.47325 30.1708 5.69064C29.3539 4.90803 28.373 4.2915 27.2896 3.87962C26.2063 3.46773 25.0436 3.26936 23.8745 3.29689Z" fill="#9ACA3C"/>
<path d="M11.1826 -0.717145C4.98753 -0.717145 0 3.35315 0 9.99516C0 16.807 4.89672 20.0292 10.2463 20.0292C12.2214 20.0708 14.1788 19.6736 15.9579 18.8703C16.472 18.5879 16.5627 18.3618 16.1996 17.9087C15.6069 17.1545 15.0909 16.35 14.6585 15.5058C14.5245 15.2096 14.4062 14.9964 14.1202 14.9964C13.9926 15.0019 13.8675 15.0308 13.7518 15.0813C12.8938 15.4356 11.9693 15.6279 11.0316 15.647C7.61585 15.647 5.10784 14.0358 5.01495 9.99416C4.92417 5.86759 7.40262 3.71942 11.0897 3.71942C12.345 3.66055 13.6 3.84333 14.7767 4.25645C14.8821 4.2969 14.9954 4.31609 15.1093 4.31273C15.351 4.31273 15.5314 4.11528 15.6834 3.91784C16.1087 3.36597 16.341 2.70457 16.3485 2.02435C16.359 1.63624 16.2648 1.25191 16.0746 0.906834C15.8844 0.561753 15.6043 0.267051 15.2602 0.0499243C14.0013 -0.550857 12.5895 -0.814934 11.1805 -0.713198" fill="#9ACA3C"/>
<path d="M85.9392 -0.999491C85.1834 -0.999491 83.2664 -0.773416 83.2664 1.12106V18.9561C83.2664 19.4932 83.353 19.7459 83.866 19.7459H87.2808C87.7948 19.7459 87.9933 19.4971 87.9933 18.9561V-0.0102997C88.0199 -0.150116 87.9936 -0.294237 87.9191 -0.41797C87.8446 -0.541703 87.7264 -0.637343 87.5847 -0.688515C87.0659 -0.902226 86.5038 -1.00832 85.937 -0.999491" fill="#9ACA3C"/>
<path d="M41.7156 3.29689C36.9107 3.29689 33.8053 6.03839 33.8053 10.3061V18.9552C33.8053 19.4922 34.0005 19.7449 34.5135 19.7449H37.8976C38.4117 19.7449 38.531 19.4961 38.531 18.9552V11.2381C38.531 10.0534 38.6302 7.64855 41.743 7.64855C44.8558 7.64855 44.7134 9.99418 44.7134 11.1818V18.9552C44.7134 19.4922 44.8769 19.7449 45.391 19.7449H48.7752C49.2892 19.7449 49.4402 19.4961 49.4402 18.9552V10.1926C49.4402 5.92388 46.6682 3.2959 41.7124 3.2959" fill="#9ACA3C"/>
<path d="M79.4622 3.29689C78.7371 3.29689 76.7178 3.52297 76.7178 5.41645V12.1147C76.7178 13.2994 76.9659 15.7042 73.8531 15.7042C70.7402 15.7042 70.8975 13.3586 70.8975 12.171V4.29102C70.9069 4.1421 70.863 3.99448 70.7725 3.8716C70.6821 3.74873 70.5504 3.65763 70.3982 3.61279C69.8437 3.39592 69.2468 3.29 68.646 3.30183C67.9197 3.30183 65.8055 3.52789 65.8055 5.42138V13.1947C65.8055 17.4625 68.7135 20.0628 73.5796 20.0628C78.3845 20.0628 81.4446 17.2364 81.4446 12.9677V4.29102C81.4446 3.89614 81.358 3.75396 81.0561 3.61279C80.5562 3.39642 80.0099 3.29006 79.4591 3.30183" fill="#9ACA3C"/>
<path d="M57.8445 3.12709C55.6383 3.12709 50.5612 3.69276 50.5612 8.32775C50.5612 11.8886 52.8834 12.7702 56.3034 13.2747L57.9922 13.5294C59.6811 13.7841 60.2892 13.9875 60.2892 14.8641C60.2892 15.9974 58.444 16.0014 57.4391 16.0014H57.3008C55.5645 15.9535 53.8488 15.6362 52.2236 15.0626C52.144 15.0433 52.0619 15.035 51.9798 15.0379C51.8567 15.0377 51.7375 15.0786 51.6438 15.1534C51.5501 15.2282 51.4881 15.3318 51.4689 15.4456L50.653 17.9926C50.5825 18.128 50.5715 18.2838 50.6224 18.4267C50.6733 18.5695 50.7821 18.688 50.9253 18.7567C53.0034 19.5651 55.2328 19.9786 57.4835 19.973C62.7116 19.973 64.9177 17.4299 64.9177 14.6025C64.9177 11.2953 62.9228 10.2785 58.69 9.65655L56.9377 9.40185C55.4599 9.17578 54.9428 8.97833 54.9428 8.1303C54.9428 7.11248 56.3931 7.02759 58.2065 7.02759C59.2738 7.03877 60.3371 7.15257 61.3795 7.36719C62.2862 7.53699 62.6462 7.73443 62.89 7.73443C63.1624 7.73443 63.3439 7.50836 63.4643 7.33955C63.6656 7.10795 63.816 6.84138 63.9067 6.55521C63.9975 6.26903 64.0269 5.96889 63.9931 5.67207C63.9594 5.37524 63.8632 5.08759 63.7101 4.82566C63.557 4.56374 63.35 4.33272 63.1011 4.1459C61.9537 3.32651 59.3845 3.12807 57.8423 3.12807" fill="#9ACA3C"/>
<path d="M13.0752 28.73C13.067 28.6451 13.078 28.5595 13.1077 28.4788C13.1373 28.3981 13.1849 28.3243 13.2473 28.2621C13.3589 28.1661 13.4972 28.1014 13.6463 28.0755C13.876 28.0376 14.1079 28.0122 14.3408 27.9995C14.6603 27.9791 15.1216 27.9689 15.7247 27.9689C16.2685 27.9571 16.8117 28.0112 17.3407 28.1298C17.7001 28.209 18.0389 28.3547 18.3372 28.5582C18.5611 28.716 18.7343 28.9284 18.8375 29.1723C18.9313 29.4058 18.9789 29.6533 18.9779 29.9028C18.9814 30.0962 18.9504 30.2887 18.886 30.4724C18.832 30.6242 18.756 30.7684 18.6602 30.9009C18.5749 31.0171 18.4713 31.1206 18.353 31.2079C18.2501 31.2853 18.1382 31.3515 18.0194 31.4054C18.374 31.5122 18.6844 31.7192 18.9082 31.9977C19.1433 32.3034 19.2625 32.6738 19.247 33.0501C19.2489 33.3208 19.2014 33.5899 19.1067 33.8458C19.0043 34.1055 18.8226 34.3314 18.5842 34.4954C18.2646 34.7071 17.9016 34.8547 17.518 34.9287C16.9396 35.0443 16.3487 35.0967 15.7574 35.0847C15.4126 35.0847 15.0857 35.0798 14.7768 35.0699C14.4678 35.06 14.1952 35.0498 13.9587 35.0393C13.7216 35.0294 13.5259 35.0176 13.3718 35.0038C13.2177 34.9899 13.1188 34.9834 13.0752 34.984V28.73ZM16.3284 30.9453C16.5424 30.9495 16.7559 30.9239 16.9618 30.8693C17.1149 30.8299 17.2584 30.7628 17.384 30.6719C17.4885 30.5918 17.5683 30.4872 17.6152 30.3688C17.6624 30.2477 17.686 30.1196 17.6848 29.9907C17.6851 29.8544 17.6538 29.7197 17.593 29.5958C17.5252 29.4648 17.4186 29.3548 17.2858 29.2789C17.1097 29.1796 16.9165 29.1098 16.7148 29.0726C16.4291 29.0144 16.1374 28.9856 15.845 28.9867C15.4284 28.9867 15.0875 28.9969 14.8222 29.0173C14.5569 29.0377 14.3918 29.0545 14.3271 29.0676V30.9433L16.3284 30.9453ZM14.325 33.9781C14.3897 33.9912 14.5495 34.008 14.8042 34.0284C15.059 34.0488 15.4235 34.059 15.8978 34.059C16.2187 34.0634 16.5394 34.0416 16.8562 33.9938C17.0783 33.964 17.2928 33.8971 17.4895 33.7964C17.6371 33.7197 17.7571 33.6039 17.8347 33.4637C17.9075 33.3173 17.9436 33.1572 17.9403 32.9958C17.9419 32.8613 17.9184 32.7277 17.8706 32.6009C17.8223 32.4779 17.7409 32.3688 17.6342 32.284C17.5045 32.1843 17.3543 32.1107 17.1929 32.0678C16.9705 32.009 16.74 31.9818 16.5089 31.9868H14.325V33.9781ZM24.7507 34.6128C24.693 34.6464 24.6033 34.6935 24.4815 34.754C24.3346 34.8237 24.1813 34.8808 24.0234 34.9248C23.8157 34.9842 23.6042 35.0313 23.3901 35.066C23.1286 35.1078 22.8637 35.128 22.5984 35.1262C22.215 35.1295 21.8338 35.0718 21.4711 34.9554C21.132 34.8463 20.8206 34.6733 20.5559 34.447C20.2891 34.2158 20.0778 33.9341 19.9363 33.6207C19.7793 33.2647 19.7024 32.8822 19.7104 32.4972C19.7053 32.1196 19.7803 31.7448 19.931 31.3945C20.0708 31.0728 20.2799 30.7814 20.5454 30.5386C20.8112 30.2976 21.1259 30.1089 21.4711 29.9838C21.8438 29.8496 22.2403 29.7826 22.6396 29.7863C22.9757 29.7811 23.3105 29.8271 23.6308 29.9226C23.8946 30.0013 24.141 30.124 24.358 30.2849C24.5479 30.4273 24.7006 30.6082 24.8045 30.814C24.9052 31.0158 24.9568 31.236 24.9555 31.4587C24.9595 31.6791 24.9123 31.8977 24.8172 32.0994C24.7085 32.3064 24.5361 32.4783 24.3222 32.593C24.0251 32.7517 23.7008 32.8609 23.3637 32.9158C22.8586 33.0023 22.3456 33.042 21.8321 33.0343C21.6914 33.0343 21.5566 33.0326 21.4278 33.0293C21.299 33.026 21.1643 33.0211 21.0235 33.0145C21.0489 33.1793 21.109 33.3376 21.2006 33.4804C21.2921 33.6231 21.4131 33.7473 21.5566 33.8458C21.9338 34.0784 22.3818 34.1896 22.8328 34.1627C23.0061 34.1637 23.1792 34.1501 23.35 34.1222C23.4931 34.0991 23.6343 34.0661 23.7722 34.0235C23.8823 33.9892 23.9901 33.9489 24.0952 33.903L24.2947 33.8122L24.7507 34.6128ZM20.9697 32.2248C21.1351 32.2313 21.2931 32.2346 21.4437 32.2346H21.8965C22.2176 32.2406 22.5387 32.2171 22.8549 32.1645C23.0542 32.1321 23.2469 32.0708 23.426 31.9829C23.5423 31.9283 23.6367 31.84 23.6952 31.7311C23.7383 31.6377 23.7603 31.5368 23.7595 31.435C23.7658 31.3204 23.7385 31.2063 23.6807 31.1051C23.6228 31.0038 23.5366 30.9193 23.4313 30.8604C23.1851 30.7261 22.9033 30.6597 22.6185 30.6689C22.3778 30.6643 22.1389 30.7091 21.9187 30.8002C21.7257 30.8817 21.5531 31.0001 21.412 31.1477C21.2746 31.2943 21.1672 31.4633 21.0953 31.6462C21.0197 31.8313 20.9773 32.0268 20.9697 32.2248ZM25.4505 31.7311C25.4435 31.4399 25.5059 31.1509 25.6332 30.8851C25.7489 30.6509 25.92 30.4443 26.1335 30.2809C26.3555 30.1149 26.6096 29.9902 26.8819 29.9137C27.1857 29.8273 27.5017 29.7847 27.8192 29.7873C28.2313 29.7808 28.6398 29.8601 29.0152 30.0193C29.3612 30.1671 29.6543 30.4049 29.8596 30.7044C30.0615 30.4074 30.3491 30.1699 30.6893 30.0193C31.0568 29.8601 31.4581 29.7808 31.863 29.7873C32.1766 29.7849 32.4888 29.8255 32.7898 29.9078C33.0596 29.981 33.3109 30.1042 33.5287 30.2701C33.7396 30.4346 33.9087 30.641 34.0238 30.8742C34.151 31.1401 34.2134 31.4291 34.2064 31.7203V34.984H32.9798V32.1142C32.9986 31.9363 32.9787 31.7567 32.9214 31.5862C32.8641 31.4157 32.7705 31.2578 32.6463 31.122C32.3983 30.9156 32.0732 30.8091 31.7417 30.8259C31.5723 30.8216 31.4038 30.8488 31.2458 30.9059C31.0878 30.9631 30.9435 31.0489 30.8212 31.1586C30.6845 31.3054 30.5811 31.4766 30.5172 31.6619C30.4533 31.8472 30.4304 32.0427 30.4497 32.2366V34.987H29.221V32.2356C29.24 32.0418 29.2168 31.8465 29.1527 31.6614C29.0887 31.4762 28.9851 31.3052 28.8484 31.1586C28.7261 31.0489 28.5818 30.9631 28.4238 30.9059C28.2658 30.8488 28.0973 30.8216 27.9279 30.8259C27.5957 30.8116 27.2708 30.9201 27.0233 31.128C26.8959 31.2632 26.7996 31.4215 26.7402 31.593C26.6808 31.7645 26.6597 31.9456 26.6782 32.125V34.988H25.4505V31.7311ZM37.1904 32.6878C37.1808 32.2647 37.2523 31.8434 37.4015 31.4439C37.5314 31.1052 37.7368 30.7962 38.0043 30.5376C38.2688 30.289 38.5889 30.0982 38.9416 29.9788C39.3318 29.8474 39.744 29.7825 40.1587 29.7873C40.5458 29.7822 40.9301 29.8493 41.2892 29.9848C41.6244 30.1132 41.9298 30.3013 42.1885 30.5386C42.4474 30.7794 42.6507 31.0674 42.7859 31.3846C42.9302 31.7244 43.0019 32.0873 42.997 32.4528C43.0012 32.8199 42.9295 33.1843 42.7859 33.5259C42.6541 33.8398 42.4563 34.1258 42.2043 34.367C41.9555 34.6027 41.6586 34.7893 41.3314 34.9159C40.9847 35.0496 40.6128 35.1167 40.2378 35.1134C39.8615 35.1204 39.4888 35.0447 39.1495 34.8922C38.863 34.7646 38.6106 34.5787 38.4107 34.3483V36.9999H37.1904V32.6878ZM40.0774 34.0985C40.3088 34.1008 40.5382 34.0578 40.7508 33.9721C40.9504 33.8914 41.13 33.7731 41.2786 33.6246C41.4281 33.473 41.5434 33.2947 41.6174 33.1004C41.6979 32.8905 41.7379 32.6689 41.7357 32.4459C41.7376 32.2277 41.6976 32.011 41.6174 31.8062C41.5432 31.6152 41.4278 31.4405 41.2786 31.2928C41.1289 31.1468 40.9495 31.0303 40.7508 30.9503C40.5382 30.8646 40.3088 30.8216 40.0774 30.8239C39.8465 30.8213 39.6175 30.8623 39.4039 30.9443C39.2058 31.0208 39.0263 31.134 38.8762 31.277C38.7255 31.4229 38.608 31.5958 38.531 31.7854C38.4462 31.9961 38.4043 32.2198 38.4075 32.4449C38.4052 32.6683 38.4471 32.8902 38.531 33.0994C38.6078 33.2925 38.7228 33.4703 38.8698 33.6236C39.0157 33.7728 39.1938 33.8913 39.3923 33.9711C39.6087 34.0578 39.842 34.1011 40.0774 34.0985ZM48.4458 34.6118C48.3881 34.6454 48.2984 34.6925 48.1767 34.753C48.0297 34.8227 47.8764 34.8798 47.7185 34.9238C47.5108 34.9832 47.2993 35.0303 47.0852 35.065C46.8237 35.1068 46.5588 35.127 46.2935 35.1252C45.9108 35.1283 45.5303 35.0705 45.1683 34.9544C44.8293 34.8453 44.5178 34.6723 44.2532 34.446C43.9863 34.2148 43.7751 33.9331 43.6335 33.6197C43.4766 33.2637 43.3997 32.8813 43.4077 32.4962C43.4025 32.1186 43.4775 31.7438 43.6283 31.3935C43.768 31.0718 43.9771 30.7804 44.2426 30.5376C44.5088 30.2968 44.8239 30.1085 45.1694 29.9838C45.5421 29.8496 45.9385 29.7826 46.3379 29.7863C46.674 29.7811 47.0088 29.8271 47.329 29.9226C47.5929 30.0013 47.8393 30.124 48.0563 30.2849C48.2462 30.4273 48.3989 30.6082 48.5028 30.814C48.6035 31.0158 48.655 31.236 48.6538 31.4587C48.657 31.6789 48.6091 31.8971 48.5134 32.0984C48.4047 32.3054 48.2323 32.4773 48.0183 32.592C47.7212 32.7507 47.3969 32.8599 47.0599 32.9148C46.5544 33.0017 46.0411 33.0417 45.5272 33.0343C45.3865 33.0343 45.2517 33.0326 45.1229 33.0293C44.9942 33.026 44.8594 33.0211 44.7187 33.0145C44.744 33.1793 44.8041 33.3376 44.8957 33.4804C44.9872 33.6231 45.1082 33.7473 45.2517 33.8458C45.6289 34.0784 46.077 34.1896 46.5279 34.1627C46.7012 34.1637 46.8743 34.1501 47.0451 34.1222C47.1883 34.0991 47.3294 34.0661 47.4673 34.0235C47.5774 33.9892 47.6852 33.9489 47.7903 33.903L47.9898 33.8122L48.4458 34.6118ZM44.6617 32.2248C44.827 32.2313 44.985 32.2346 45.1356 32.2346H45.5884C45.9096 32.2406 46.2306 32.2171 46.5469 32.1645C46.7462 32.1321 46.9388 32.0708 47.1179 31.9829C47.2343 31.9283 47.3287 31.84 47.3871 31.7311C47.4303 31.6377 47.4522 31.5368 47.4515 31.435C47.4577 31.3204 47.4305 31.2063 47.3726 31.1051C47.3148 31.0038 47.2286 30.9193 47.1232 30.8604C46.877 30.7261 46.5952 30.6597 46.3104 30.6689C46.0697 30.6643 45.8308 30.7091 45.6106 30.8002C45.4177 30.8817 45.2451 31.0001 45.1039 31.1477C44.9665 31.2943 44.8592 31.4633 44.7873 31.6462C44.7117 31.8313 44.6692 32.0268 44.6617 32.2248ZM49.1425 31.9286C49.1369 31.618 49.2051 31.3102 49.342 31.0273C49.4702 30.7675 49.6575 30.537 49.8909 30.352C50.1352 30.1615 50.4171 30.0176 50.7205 29.9285C51.0602 29.8283 51.4147 29.779 51.7708 29.7824C52.1287 29.7792 52.4848 29.8285 52.8264 29.9285C53.1318 30.0169 53.4155 30.1608 53.6613 30.352C53.8942 30.5363 54.0799 30.767 54.2049 31.0273C54.3384 31.3111 54.4046 31.6186 54.3992 31.9286V34.9811H53.1747V32.2169C53.2028 31.8396 53.0755 31.4666 52.819 31.1744C52.6817 31.0491 52.5176 30.9525 52.3374 30.8909C52.1573 30.8293 51.9653 30.8041 51.774 30.817C51.5818 30.8032 51.3887 30.828 51.2076 30.8896C51.0265 30.9512 50.8615 31.0483 50.7237 31.1744C50.4702 31.4679 50.345 31.8404 50.3733 32.2169V34.9811H49.1467L49.1425 31.9286ZM55.3703 33.7214C55.4556 33.7725 55.5457 33.8165 55.6394 33.8527C55.7959 33.9158 55.9559 33.9712 56.1186 34.0185C56.332 34.0808 56.5496 34.1297 56.7699 34.1646C57.0332 34.2063 57.2999 34.2265 57.5669 34.2249C57.8784 34.2344 58.1891 34.1882 58.482 34.0886C58.5876 34.0573 58.6795 33.9948 58.7436 33.9103C58.8078 33.8259 58.8409 33.7242 58.8378 33.6207C58.8427 33.5371 58.8245 33.4538 58.7849 33.3787C58.7453 33.3037 58.6857 33.2395 58.6119 33.1922C58.3627 33.0676 58.0867 32.9971 57.8044 32.9859L56.9599 32.8951C56.6914 32.8717 56.4262 32.8227 56.1683 32.749C55.9457 32.6869 55.7362 32.5897 55.5486 32.4617C55.3787 32.3435 55.2403 32.1901 55.1444 32.0135C55.0423 31.8141 54.9924 31.5948 54.9987 31.3738C54.9978 31.1641 55.0438 30.9566 55.1338 30.7647C55.229 30.566 55.3738 30.3917 55.556 30.2562C55.7814 30.0938 56.0395 29.9756 56.315 29.9087C56.6856 29.8179 57.0678 29.7754 57.4508 29.7824C58.0409 29.7599 58.6304 29.8385 59.1903 30.0144C59.6034 30.169 59.8099 30.3704 59.8099 30.6185C59.8116 30.6916 59.795 30.7639 59.7614 30.8298C59.732 30.8866 59.6967 30.9405 59.6558 30.9907C59.6202 31.0341 59.5787 31.0729 59.5323 31.1062C59.5029 31.1288 59.4702 31.1474 59.4352 31.1615C59.3765 31.1141 59.3132 31.0718 59.2463 31.0352C59.1218 30.9661 58.9903 30.9088 58.8536 30.8644C58.6606 30.8001 58.4626 30.7496 58.2614 30.7133C57.9987 30.667 57.7318 30.6451 57.4645 30.6482C56.6313 30.6482 56.2147 30.8528 56.2147 31.2622C56.212 31.3419 56.2326 31.4208 56.2742 31.4904C56.3159 31.56 56.3771 31.6176 56.4512 31.6571C56.661 31.7628 56.8922 31.8264 57.1299 31.8437L58.2287 31.975C58.7258 32.015 59.2038 32.1727 59.6178 32.4331C59.7833 32.5528 59.915 32.7086 60.0013 32.8869C60.0876 33.0652 60.1259 33.2605 60.1129 33.4558C60.1196 33.6908 60.0648 33.9238 59.9531 34.1345C59.8414 34.3451 59.6763 34.527 59.4722 34.6642C58.925 34.9981 58.2769 35.1571 57.6249 35.1173C57.2712 35.1198 56.9179 35.0928 56.5694 35.0363C56.2905 34.9911 56.0151 34.9287 55.745 34.8498C55.5513 34.794 55.3622 34.725 55.1792 34.6434C55.0811 34.6014 54.9874 34.5509 54.8995 34.4924L55.3703 33.7214ZM65.5933 34.9653C65.5229 34.9784 65.41 34.9936 65.2545 35.0107C65.099 35.0278 64.9178 35.0446 64.7109 35.061C64.4998 35.0781 64.2665 35.0933 64.011 35.1064C63.7556 35.1196 63.4864 35.1262 63.2035 35.1262C62.7418 35.1363 62.2805 35.0905 61.8313 34.9899C61.5268 34.923 61.2397 34.7998 60.9869 34.6276C60.7954 34.4943 60.6488 34.3124 60.5647 34.1034C60.4898 33.908 60.4516 33.7019 60.4517 33.4943C60.4465 33.2466 60.4924 33.0002 60.5868 32.7687C60.678 32.5585 60.831 32.3767 61.028 32.2445C61.2695 32.0887 61.5425 31.9809 61.8303 31.9276C62.2271 31.851 62.6317 31.8156 63.0368 31.822C63.3098 31.822 63.5684 31.8305 63.8126 31.8476C64.0568 31.8647 64.2397 31.8799 64.3615 31.893C64.3692 31.6919 64.3269 31.4919 64.238 31.3086C64.1622 31.1614 64.0451 31.0362 63.8992 30.9463C63.7415 30.8539 63.5656 30.7921 63.3819 30.7647C63.1612 30.7296 62.9376 30.7127 62.7138 30.7143C62.3794 30.7037 62.0457 30.7482 61.7279 30.8456C61.5545 30.8979 61.3897 30.9723 61.2381 31.0667C61.1721 31.0088 61.1127 30.9446 61.0608 30.8752C60.9836 30.7759 60.9439 30.6554 60.9478 30.5327C60.9489 30.4352 60.9769 30.3396 61.0291 30.2553C61.0981 30.1513 61.1968 30.0675 61.3141 30.0134C61.4867 29.9317 61.6719 29.8758 61.863 29.8475C62.1514 29.803 62.4436 29.7828 62.7359 29.7873C63.1264 29.7835 63.5161 29.8222 63.897 29.9028C64.2195 29.9692 64.5251 30.094 64.7964 30.2701C65.05 30.4405 65.2521 30.6694 65.3833 30.9345C65.532 31.248 65.6042 31.5886 65.5944 31.9315L65.5933 34.9653ZM64.3763 32.7292C64.3059 32.7161 64.1711 32.696 63.972 32.669C63.677 32.6371 63.3801 32.6236 63.0832 32.6285C62.7142 32.603 62.345 32.6745 62.0171 32.8349C61.9056 32.9064 61.8161 33.004 61.7576 33.118C61.699 33.232 61.6735 33.3583 61.6835 33.4844C61.682 33.5986 61.7057 33.7119 61.7532 33.8171C61.8053 33.9232 61.8898 34.0125 61.996 34.0738C62.14 34.1546 62.299 34.2091 62.4646 34.2347C62.7085 34.2753 62.9559 34.2939 63.2035 34.29C63.4662 34.2932 63.7288 34.2813 63.9899 34.2545C64.1842 34.2308 64.3133 34.2124 64.3773 34.1992L64.3763 32.7292ZM70.8151 28.0952C70.8085 28.0206 70.82 27.9456 70.8489 27.8759C70.8778 27.8061 70.9233 27.7434 70.9819 27.6924C71.1201 27.5971 71.2898 27.5506 71.4611 27.5611C71.5815 27.56 71.7013 27.5753 71.8169 27.6065C71.9245 27.6368 71.9949 27.6585 72.028 27.6717V32.2129C72.0383 32.6497 71.9636 33.0846 71.8074 33.4963C71.6758 33.8355 71.4681 34.1445 71.1983 34.4026C70.9396 34.6445 70.6272 34.8302 70.2831 34.9465C69.9134 35.0704 69.5232 35.1319 69.1305 35.1282C68.731 35.1336 68.3342 35.0665 67.962 34.9307C67.6194 34.8041 67.3067 34.6159 67.0415 34.3769C66.779 34.1366 66.5718 33.8487 66.4325 33.5308C66.2833 33.1922 66.2083 32.8289 66.2119 32.4627C66.2077 32.0956 66.2794 31.7312 66.423 31.3896C66.5556 31.0746 66.7533 30.7871 67.0046 30.5435C67.2535 30.3025 67.5528 30.112 67.8839 29.9838C68.2306 29.8501 68.6024 29.7829 68.9774 29.7863C69.3578 29.7788 69.7346 29.8567 70.0763 30.0134C70.3624 30.1438 70.6145 30.3312 70.8151 30.5623V28.0952ZM70.8151 32.4567C70.8168 32.2366 70.775 32.018 70.6916 31.8121C70.6148 31.6191 70.4999 31.4412 70.3528 31.2879C70.207 31.1387 70.0289 31.0202 69.8303 30.9404C69.6177 30.8547 69.3883 30.8117 69.1569 30.814C68.9236 30.8107 68.6923 30.8538 68.4781 30.9404C68.2816 31.0213 68.1041 31.1378 67.9557 31.2829C67.8056 31.432 67.6903 31.6084 67.6168 31.8012C67.5364 32.0112 67.4964 32.2328 67.4986 32.4558C67.496 32.6772 67.5361 32.8972 67.6168 33.1054C67.6911 33.2963 67.8064 33.471 67.9557 33.6187C68.1041 33.7639 68.2816 33.8803 68.4781 33.9613C68.6923 34.0479 68.9236 34.091 69.1569 34.0876C69.3877 34.0902 69.6168 34.0493 69.8303 33.9672C70.0273 33.8915 70.2053 33.7781 70.3528 33.6345C70.5011 33.4862 70.6163 33.3116 70.6916 33.1211C70.7769 32.9088 70.8195 32.6836 70.8173 32.4567H70.8151ZM75.4892 29.7913C75.8885 29.7871 76.2851 29.8541 76.6576 29.9887C77.0079 30.1155 77.3281 30.3054 77.6003 30.5475C77.8672 30.7874 78.0797 31.0751 78.2252 31.3935C78.3781 31.7295 78.455 32.0916 78.451 32.4567C78.4552 32.8182 78.3794 33.1765 78.2283 33.5091C78.0828 33.8275 77.8703 34.1152 77.6034 34.3552C77.3306 34.5977 77.0106 34.789 76.6608 34.9189C76.2894 35.0581 75.8925 35.1281 75.4923 35.1252C75.0919 35.1286 74.6946 35.0588 74.3228 34.9199C73.9729 34.79 73.653 34.5987 73.3801 34.3562C73.1133 34.1162 72.9007 33.8285 72.7553 33.5101C72.6026 33.1774 72.5253 32.8188 72.5283 32.4567C72.5243 32.0916 72.6013 31.7295 72.7542 31.3935C72.8997 31.0751 73.1122 30.7874 73.3791 30.5475C73.6512 30.3054 73.9715 30.1155 74.3217 29.9887C74.6943 29.8526 75.0913 29.7843 75.4913 29.7873L75.4892 29.7913ZM75.4892 34.1123C75.7223 34.1143 75.9533 34.0712 76.1679 33.9859C76.3706 33.9057 76.5524 33.7855 76.7009 33.6335C76.8497 33.4803 76.9668 33.3025 77.0461 33.1093C77.1303 32.9019 77.1721 32.6816 77.1696 32.4597C77.1715 32.2347 77.1297 32.0112 77.0461 31.8002C76.9694 31.6044 76.8521 31.4245 76.7009 31.2711C76.5512 31.1217 76.3696 31.0033 76.1679 30.9236C75.9533 30.8383 75.7223 30.7953 75.4892 30.7972C75.2542 30.7944 75.0213 30.8374 74.8051 30.9236C74.6056 31.0043 74.4259 31.1226 74.2774 31.2711C74.1263 31.4246 74.009 31.6044 73.9322 31.8002C73.8486 32.0112 73.8068 32.2347 73.8087 32.4597C73.8062 32.6816 73.848 32.9019 73.9322 33.1093C74.0116 33.3025 74.1286 33.4803 74.2774 33.6335C74.4246 33.7846 74.6045 33.9047 74.8051 33.9859C75.0222 34.071 75.2559 34.1127 75.4913 34.1084L75.4892 34.1123Z" fill="#736C6B"/>
</g>
<defs>
<clipPath id="clip0">
<rect width="87.9932" height="38" fill="white" transform="translate(0 -1)"/>
</clipPath>
</defs>
</svg>
